<svg width="154" height="70" viewBox="0 0 154 70" fill="none" xmlns="http://www.w3.org/2000/svg">
<g clip-path="url(#clip0_2_4086)">
<path fill-rule="evenodd" clip-rule="evenodd" d="M24.5702 40.6801C20.3003 50.4008 16.3768 60.4208 13.4295 68.5554C13.0768 69.5291 12.0015 70.032 11.0279 69.6795C10.0543 69.3266 9.55103 68.2516 9.90378 67.2779C12.7481 59.4275 16.5099 49.792 20.6319 40.3264C14.1733 39.7038 7.33615 38.8375 0.12085 37.6848L0.28853 33.9627C7.34932 33.479 16.6283 32.2131 25.3524 29.9355C27.351 25.7333 29.3825 21.7236 31.3915 18.101C35.3266 11.0053 39.3334 5.09381 42.9946 2.27151C44.8183 0.865509 47.0029 -0.112782 49.2312 0.588584C51.425 1.27906 52.8662 3.35575 53.8437 6.02118C55.9221 11.689 54.7112 16.6152 51.4066 20.6535C48.2004 24.5722 43.0758 27.6096 37.3136 29.9648C34.3851 31.1617 31.2375 32.2039 28.0033 33.1043C27.3944 34.4044 26.7888 35.7211 26.1884 37.0488C42.5246 38.3329 56.1908 38.0079 67.1825 36.8744C83.5258 35.1891 93.835 31.7297 98.2337 29.2068C99.1321 28.6916 100.278 29.0022 100.793 29.9005C101.308 30.7988 100.998 31.9446 100.1 32.4598C95.0537 35.3535 84.1546 38.8941 67.5675 40.6047C56.0387 41.7933 41.7033 42.1045 24.5702 40.6801ZM22.2286 36.7104C22.5899 35.9035 22.9534 35.0997 23.3186 34.3003C20.5476 34.9476 17.7602 35.4986 15.0357 35.961C17.4856 36.245 19.8832 36.494 22.2286 36.7104ZM30.1889 28.5443C32.1619 27.9196 34.0757 27.237 35.8947 26.4935C41.4313 24.2306 45.8796 21.4868 48.5046 18.2787C51.0316 15.1903 51.9112 11.6443 50.3229 7.3121C49.4671 4.97752 48.5958 4.31985 48.1054 4.1656C47.65 4.02224 46.7791 4.08887 45.2841 5.24147C42.3071 7.53635 38.6212 12.7967 34.6709 19.9198C33.1841 22.6007 31.6822 25.5031 30.1889 28.5443Z" fill="#114E60"/>
<path d="M38.1641 66.1329C38.0338 66.3846 37.8689 66.6275 37.6692 66.8621C37.4783 67.0963 37.257 67.3046 37.0052 67.4871C36.7622 67.6604 36.5018 67.8038 36.224 67.9167C35.9462 68.0209 35.6597 68.0729 35.3646 68.0729C34.8785 68.0729 34.4531 67.9817 34.0885 67.7996C33.7326 67.6171 33.4288 67.3742 33.1771 67.0704C32.934 66.7579 32.7518 66.4021 32.6302 66.0025C32.5087 65.6034 32.4479 65.1825 32.4479 64.7396V59.7004C32.3264 60.2563 32.1875 60.855 32.0313 61.4975C31.875 62.1313 31.684 62.7646 31.4583 63.3984C31.2326 64.0234 30.9679 64.6267 30.6641 65.2084C30.3603 65.79 30 66.3063 29.5833 66.7579C29.1753 67.2004 28.7066 67.5563 28.1771 67.8254C27.6476 68.0859 27.0443 68.2163 26.3672 68.2163C25.5425 68.2163 24.8047 68.06 24.1537 67.7475C23.5026 67.435 22.947 67.005 22.487 66.4584C22.0356 65.9117 21.6884 65.2646 21.4453 64.5184C21.2109 63.7629 21.0938 62.9471 21.0938 62.0704C21.0938 61.0288 21.2587 59.9871 21.5885 58.9454C21.9184 57.895 22.3698 56.8879 22.9427 55.9246C23.5243 54.9609 24.2101 54.0667 25 53.2421C25.7986 52.4175 26.6667 51.7013 27.6042 51.0938C28.5417 50.4863 29.5269 50.0129 30.5599 49.6746C31.6016 49.3359 32.6519 49.1754 33.7109 49.1925H33.8672V49.7788C32.9557 49.8221 32.079 50.0217 31.237 50.3775C30.395 50.725 29.605 51.185 28.8672 51.7579C28.138 52.3221 27.4696 52.9775 26.862 53.7242C26.2543 54.4704 25.7335 55.2646 25.2995 56.1067C24.8741 56.9488 24.5399 57.8167 24.2969 58.7109C24.0625 59.605 23.9453 60.4863 23.9453 61.3542C23.9453 61.6925 23.967 62.0575 24.0104 62.4479C24.0538 62.83 24.1276 63.2163 24.2318 63.6067C24.3359 63.9888 24.4705 64.3575 24.6354 64.7134C24.8003 65.0609 25.0043 65.3734 25.2474 65.6509C25.4991 65.92 25.7899 66.1371 26.1198 66.3021C26.4497 66.4584 26.8272 66.5367 27.2526 66.5367C27.7647 66.5367 28.2292 66.38 28.6458 66.0675C29.0625 65.755 29.4401 65.3342 29.7787 64.8046C30.1172 64.275 30.4167 63.6588 30.6771 62.9559C30.9462 62.2525 31.1805 61.5104 31.3802 60.7292C31.5799 59.9479 31.7448 59.1538 31.875 58.3463C32.0139 57.5304 32.1224 56.7492 32.2005 56.0025C32.2873 55.2563 32.3481 54.5659 32.3828 53.9325C32.4262 53.29 32.4479 52.7517 32.4479 52.3175L35.1433 51.3284V65.1692C35.1433 65.3429 35.1606 65.5167 35.1953 65.69C35.23 65.8638 35.2908 66.0242 35.3776 66.1717C35.4644 66.3109 35.5729 66.4238 35.7031 66.5104C35.842 66.5971 36.0113 66.6409 36.2109 66.6409C36.5147 66.6409 36.8012 66.5496 37.0703 66.3671C37.3394 66.185 37.5608 65.9809 37.7344 65.755L38.1641 66.1329Z" fill="black"/>
<path d="M44.0233 66.3933C43.9191 66.6187 43.7846 66.8316 43.62 67.0312C43.4633 67.2308 43.2854 67.4087 43.0858 67.565C42.8862 67.7212 42.665 67.8429 42.4216 67.9295C42.1875 68.025 41.9446 68.0729 41.6925 68.0729C41.0156 68.0729 40.5208 67.8862 40.2083 67.5129C39.9045 67.1312 39.7526 66.6145 39.7526 65.9633V50.0783L42.1483 49.245V66.0287C42.1483 66.202 42.1875 66.3629 42.2658 66.5104C42.3437 66.6491 42.4825 66.7187 42.6825 66.7187C42.8821 66.7187 43.0687 66.6408 43.2421 66.4841C43.4246 66.3195 43.5675 66.1587 43.6716 66.0025L44.0233 66.3933Z" fill="black"/>
<path d="M50.1433 66.3933C50.0392 66.6187 49.9046 66.8316 49.7396 67.0312C49.5833 67.2308 49.4054 67.4087 49.2058 67.565C49.0063 67.7212 48.7846 67.8429 48.5417 67.9295C48.3075 68.025 48.0642 68.0729 47.8125 68.0729C47.1354 68.0729 46.6408 67.8862 46.3283 67.5129C46.0242 67.1312 45.8725 66.6145 45.8725 65.9633V50.0783L48.2683 49.245V66.0287C48.2683 66.202 48.3075 66.3629 48.3854 66.5104C48.4633 66.6491 48.6025 66.7187 48.8021 66.7187C49.0017 66.7187 49.1883 66.6408 49.3621 66.4841C49.5442 66.3195 49.6875 66.1587 49.7917 66.0025L50.1433 66.3933Z" fill="black"/>
<path d="M55.7292 68.2162C55.0867 68.2162 54.4834 68.1033 53.9192 67.8775C53.3638 67.6433 52.8775 67.3221 52.4609 66.9142C52.0529 66.5062 51.7275 66.0288 51.4842 65.4817C51.25 64.9263 51.1329 64.3229 51.1329 63.6717C51.1329 62.9342 51.2542 62.2437 51.4975 61.6017C51.7404 60.9504 52.0746 60.3646 52.5 59.8438C52.9342 59.3229 53.4417 58.8717 54.0234 58.4896C54.6138 58.1075 55.2517 57.8083 55.9375 57.5912L56.315 58.0467C55.9246 58.3333 55.56 58.6633 55.2213 59.0367C54.8829 59.4008 54.5875 59.8004 54.3359 60.2342C54.0842 60.6596 53.8846 61.1112 53.7371 61.5883C53.5896 62.0575 53.5159 62.5392 53.5159 63.0338C53.5159 63.4504 53.5763 63.8888 53.6979 64.3492C53.8196 64.8092 54.0017 65.23 54.245 65.6121C54.4879 65.9937 54.7917 66.3108 55.1563 66.5625C55.5296 66.8054 55.9592 66.9271 56.4454 66.9271C56.8792 66.9271 57.2525 66.8492 57.565 66.6925C57.8863 66.5367 58.1509 66.3238 58.3592 66.0546C58.5675 65.7854 58.7242 65.4729 58.8284 65.1171C58.9325 64.7525 58.9842 64.3708 58.9842 63.9713C58.9842 63.5025 58.8934 63.025 58.7109 62.5392C58.5288 62.0442 58.2771 61.5883 57.9559 61.1717C57.6434 60.755 57.2742 60.4079 56.8492 60.13C56.4238 59.8525 55.9679 59.6917 55.4817 59.6483C55.7854 59.3013 56.12 58.98 56.4842 58.685C56.8492 58.3896 57.2179 58.1075 57.5913 57.8383C58.0946 58.0033 58.5375 58.2467 58.9192 58.5675C59.31 58.8887 59.6354 59.2579 59.8959 59.6746C60.165 60.0912 60.3688 60.5467 60.5079 61.0417C60.6467 61.5279 60.7163 62.0225 60.7163 62.5258C60.7163 63.2117 60.5946 63.8933 60.3517 64.5704C60.1171 65.2475 59.7788 65.8592 59.3359 66.4062C58.9021 66.9446 58.3767 67.3829 57.7604 67.7213C57.1529 68.0513 56.4759 68.2162 55.7292 68.2162Z" fill="black"/>
<path d="M75.3775 59.4662C75.3775 59.7354 75.3429 60.0346 75.2733 60.3646C75.2125 60.6858 75.1216 60.9721 75 61.2242L71.9662 67.7342C71.9141 67.83 71.8404 67.8908 71.745 67.9167C71.6579 67.9512 71.5625 67.9687 71.4583 67.9687C71.3366 67.9687 71.2196 67.9471 71.1066 67.9037C70.9937 67.8604 70.9158 67.7779 70.8725 67.6562L68.8412 60.4817L67.0312 67.565C66.9617 67.7125 66.8621 67.8254 66.7317 67.9037C66.6104 67.9817 66.4712 68.0208 66.315 68.0208C66.2021 68.0208 66.0937 67.9992 65.9896 67.9558C65.8942 67.9125 65.8333 67.83 65.8075 67.7083L63.5158 60.3908C63.4808 60.2867 63.4333 60.1779 63.3725 60.065C63.3204 59.9437 63.2508 59.835 63.1642 59.7396C63.0858 59.6354 62.995 59.5529 62.8908 59.4921C62.795 59.4229 62.6825 59.3879 62.5521 59.3879C62.3783 59.3879 62.2179 59.4358 62.0704 59.5312C61.9312 59.6267 61.8054 59.7267 61.6925 59.8308L61.4325 59.4921C61.5625 59.2492 61.7275 59.0233 61.9271 58.815C62.1267 58.5979 62.3479 58.4071 62.5912 58.2421C62.8342 58.0771 63.0904 57.9471 63.3592 57.8517C63.6371 57.7562 63.9192 57.7083 64.2058 57.7083C64.4487 57.7083 64.6529 57.7779 64.8175 57.9167C64.9825 58.0554 65.1217 58.225 65.2342 58.4246C65.3471 58.6242 65.4383 58.8367 65.5079 59.0625C65.5858 59.2883 65.6508 59.4921 65.7033 59.6746C65.9633 60.4904 66.2196 61.3108 66.4712 62.1354C66.7317 62.96 66.9879 63.7758 67.2396 64.5833L68.5287 59.3621L68.2033 58.3204L70.3908 57.5912L72.5258 65.1692L73.75 62.37C73.8021 62.2396 73.8454 62.0746 73.88 61.875C73.915 61.6667 73.9325 61.4929 73.9325 61.3542C73.9325 60.8333 73.7979 60.3862 73.5287 60.0129C73.2683 59.6396 72.9166 59.3404 72.4741 59.1146L73.9583 57.0575C74.4446 57.3004 74.8004 57.63 75.0258 58.0467C75.2604 58.455 75.3775 58.9279 75.3775 59.4662Z" fill="black"/>
<path d="M86.0937 65.3775C85.79 65.7683 85.4558 66.1329 85.0912 66.4712C84.7354 66.81 84.3446 67.105 83.9192 67.3566C83.5025 67.6083 83.06 67.8083 82.5912 67.9558C82.1225 68.1033 81.6362 68.1771 81.1329 68.1771C80.4904 68.1771 79.9 68.0641 79.3621 67.8383C78.8238 67.6041 78.3592 67.2875 77.9688 66.8879C77.5784 66.48 77.2742 66.0025 77.0575 65.4558C76.8404 64.9 76.7317 64.3054 76.7317 63.6717C76.7317 63.1508 76.8054 62.6387 76.9534 62.1354C77.1009 61.6321 77.3092 61.1587 77.5784 60.7162C77.8471 60.2733 78.1642 59.8654 78.5288 59.4921C78.9021 59.1104 79.31 58.7846 79.7525 58.5158C80.1954 58.2467 80.6642 58.0383 81.1588 57.8908C81.6538 57.7342 82.1617 57.6562 82.6825 57.6562C83.0467 57.6562 83.3896 57.6996 83.7108 57.7867C84.0408 57.8733 84.3317 58.0121 84.5833 58.2033C84.835 58.3854 85.0346 58.6242 85.1825 58.9192C85.33 59.2058 85.4037 59.5487 85.4037 59.9479C85.4037 60.2779 85.3037 60.625 85.1042 60.9896C84.9133 61.3542 84.6571 61.7187 84.3358 62.0833C84.0233 62.4479 83.6675 62.8083 83.2683 63.1642C82.8687 63.5112 82.4608 63.8367 82.0442 64.1408C81.6363 64.4358 81.2413 64.6962 80.8592 64.9216C80.4775 65.1475 80.1433 65.3212 79.8567 65.4425C80.1779 65.8421 80.5513 66.1675 80.9767 66.4191C81.4021 66.6708 81.8533 66.7966 82.3308 66.7966C82.6346 66.7966 82.9425 66.7404 83.255 66.6275C83.5675 66.5062 83.8671 66.3541 84.1537 66.1716C84.4487 65.9896 84.7267 65.79 84.9871 65.5729C85.2562 65.3558 85.495 65.1521 85.7033 64.9608L86.0937 65.3775ZM82.9558 60.4296C82.9558 60.23 82.9208 60.0392 82.8517 59.8567C82.7908 59.6746 82.6996 59.5183 82.5783 59.3879C82.4567 59.2492 82.3092 59.1408 82.1354 59.0625C81.9704 58.9758 81.7796 58.9325 81.5625 58.9325C81.1717 58.9325 80.8117 59.0712 80.4817 59.3492C80.1521 59.6179 79.8654 59.9521 79.6225 60.3517C79.3879 60.7508 79.2013 61.1762 79.0625 61.6275C78.9325 62.0704 78.8671 62.4608 78.8671 62.7996C78.8671 63.1292 78.9192 63.4679 79.0233 63.815C79.1275 64.1625 79.2708 64.4966 79.4533 64.8175C79.8004 64.6266 80.1779 64.3621 80.5858 64.0233C80.9938 63.685 81.3717 63.3158 81.7188 62.9167C82.0746 62.5087 82.37 62.0875 82.6042 61.6537C82.8383 61.2196 82.9558 60.8117 82.9558 60.4296Z" fill="black"/>
<path d="M98.2421 66.3671C98.138 66.5929 98.0034 66.8054 97.8384 67.005C97.6738 67.205 97.4913 67.3829 97.2917 67.5392C97.0921 67.6954 96.8709 67.8212 96.6275 67.9167C96.3934 68.0033 96.15 68.0467 95.8984 68.0467C95.2125 68.0467 94.7134 67.8604 94.4009 67.4871C94.0971 67.105 93.9455 66.5883 93.9455 65.9375V65.7033C93.798 65.9983 93.6284 66.2933 93.4375 66.5883C93.2467 66.8837 93.025 67.1483 92.7734 67.3829C92.5305 67.6171 92.2525 67.8083 91.94 67.9558C91.6363 68.1033 91.2934 68.1771 90.9117 68.1771C90.33 68.1771 89.8175 68.0642 89.375 67.8383C88.9409 67.6042 88.5763 67.2958 88.2813 66.9142C87.9863 66.5233 87.7604 66.0721 87.6042 65.56C87.4567 65.0479 87.3829 64.5096 87.3829 63.9454C87.3829 63.2162 87.4959 62.4825 87.7213 61.745C87.9471 61.0071 88.2771 60.3383 88.7109 59.7396C89.145 59.1408 89.6788 58.6546 90.3125 58.2812C90.9463 57.8992 91.6709 57.7083 92.4871 57.7083C92.9904 57.7083 93.4767 57.83 93.9455 58.0729V50.0783L96.3542 49.245V66.0025C96.3542 66.1762 96.3934 66.3367 96.4713 66.4842C96.5584 66.6233 96.6971 66.6925 96.888 66.6925C97.0875 66.6925 97.2742 66.6146 97.448 66.4583C97.6217 66.2933 97.7605 66.1283 97.8646 65.9633L98.2421 66.3671ZM93.9455 62.4479V59.6746C93.7459 59.475 93.52 59.31 93.2684 59.1796C93.025 59.0496 92.7563 58.9842 92.4609 58.9842C91.9488 58.9842 91.5146 59.1233 91.1588 59.4008C90.8029 59.6787 90.5121 60.0258 90.2867 60.4425C90.0609 60.8592 89.8959 61.3108 89.7917 61.7967C89.6875 62.2742 89.6354 62.7212 89.6354 63.1379C89.6354 63.4679 89.6659 63.8412 89.7267 64.2579C89.7959 64.6658 89.9088 65.0521 90.065 65.4167C90.23 65.7725 90.4425 66.0762 90.7034 66.3283C90.9721 66.5712 91.3063 66.6925 91.7059 66.6925C92.0271 66.6925 92.3046 66.6233 92.5392 66.4842C92.7821 66.3367 92.9863 66.15 93.1509 65.9246C93.3159 65.69 93.4505 65.4254 93.5546 65.13C93.6588 64.8262 93.7371 64.5183 93.7892 64.2058C93.85 63.8933 93.8888 63.585 93.9063 63.2812C93.9325 62.9687 93.9455 62.6908 93.9455 62.4479Z" fill="black"/>
<path d="M118.008 48.8021C117.73 49.2188 117.4 49.6092 117.018 49.9742C116.636 50.3384 116.215 50.6596 115.755 50.9375C115.304 51.2154 114.826 51.4367 114.323 51.6017C113.82 51.7579 113.316 51.8359 112.812 51.8359L112.513 51.8621C112.183 52.2788 111.931 52.6825 111.758 53.0729C111.584 53.4634 111.497 53.9238 111.497 54.4534V62.7733C111.497 63.9279 111.25 64.9567 110.755 65.8592C110.269 66.7533 109.549 67.5258 108.594 68.1771L108.164 67.6825C108.312 67.5175 108.429 67.3308 108.516 67.1225C108.602 66.9054 108.667 66.6842 108.711 66.4583C108.754 66.2325 108.78 66.0071 108.789 65.7813C108.806 65.5467 108.815 65.3254 108.815 65.1171V55.9633C108.815 55.5554 108.897 55.1604 109.062 54.7788C109.236 54.3879 109.453 54.0192 109.713 53.6717C109.974 53.3246 110.26 52.9992 110.573 52.6954C110.894 52.3917 111.202 52.1138 111.497 51.8621L107.187 51.8359C106.857 51.8359 106.562 51.8709 106.302 51.94C106.05 52.0009 105.816 52.0921 105.599 52.2134C105.382 52.335 105.174 52.4871 104.974 52.6692C104.774 52.8517 104.57 53.0642 104.362 53.3075L103.984 52.9038C104.271 52.5129 104.592 52.1009 104.948 51.6667C105.312 51.2325 105.703 50.8375 106.12 50.4817C106.545 50.1259 106.997 49.8309 107.474 49.5963C107.96 49.3621 108.468 49.245 108.997 49.245H114.622C114.848 49.245 115.1 49.2317 115.377 49.2059C115.664 49.1796 115.95 49.1363 116.237 49.0754C116.523 49.0146 116.792 48.9367 117.044 48.8413C117.305 48.7371 117.522 48.6067 117.695 48.4504L118.008 48.8021Z" fill="black"/>
<path d="M127.317 65.3775C127.014 65.7683 126.68 66.1329 126.315 66.4712C125.959 66.81 125.569 67.105 125.143 67.3566C124.727 67.6083 124.284 67.8083 123.815 67.9558C123.346 68.1033 122.86 68.1771 122.357 68.1771C121.715 68.1771 121.124 68.0641 120.586 67.8383C120.048 67.6041 119.583 67.2875 119.192 66.8879C118.802 66.48 118.498 66.0025 118.281 65.4558C118.064 64.9 117.956 64.3054 117.956 63.6717C117.956 63.1508 118.03 62.6387 118.177 62.1354C118.325 61.6321 118.533 61.1587 118.802 60.7162C119.071 60.2733 119.388 59.8654 119.752 59.4921C120.126 59.1104 120.534 58.7846 120.977 58.5158C121.419 58.2467 121.888 58.0383 122.383 57.8908C122.877 57.7342 123.385 57.6562 123.906 57.6562C124.271 57.6562 124.614 57.6996 124.935 57.7867C125.265 57.8733 125.555 58.0121 125.807 58.2033C126.059 58.3854 126.259 58.6242 126.406 58.9192C126.554 59.2058 126.627 59.5487 126.627 59.9479C126.627 60.2779 126.528 60.625 126.328 60.9896C126.137 61.3542 125.881 61.7187 125.56 62.0833C125.247 62.4479 124.892 62.8083 124.492 63.1642C124.093 63.5112 123.685 63.8367 123.268 64.1408C122.86 64.4358 122.465 64.6962 122.083 64.9216C121.701 65.1475 121.367 65.3212 121.081 65.4425C121.402 65.8421 121.775 66.1675 122.2 66.4191C122.626 66.6708 123.077 66.7966 123.555 66.7966C123.858 66.7966 124.167 66.7404 124.479 66.6275C124.792 66.5062 125.091 66.3541 125.377 66.1716C125.673 65.9896 125.95 65.79 126.211 65.5729C126.48 65.3558 126.719 65.1521 126.927 64.9608L127.317 65.3775ZM124.18 60.4296C124.18 60.23 124.145 60.0392 124.075 59.8567C124.015 59.6746 123.924 59.5183 123.802 59.3879C123.68 59.2492 123.533 59.1408 123.359 59.0625C123.195 58.9758 123.003 58.9325 122.787 58.9325C122.396 58.9325 122.035 59.0712 121.706 59.3492C121.376 59.6179 121.09 59.9521 120.846 60.3517C120.612 60.7508 120.425 61.1762 120.287 61.6275C120.156 62.0704 120.091 62.4608 120.091 62.7996C120.091 63.1292 120.143 63.4679 120.247 63.815C120.352 64.1625 120.495 64.4966 120.677 64.8175C121.024 64.6266 121.402 64.3621 121.81 64.0233C122.218 63.685 122.595 63.3158 122.942 62.9167C123.299 62.5087 123.594 62.0875 123.828 61.6537C124.062 61.2196 124.18 60.8117 124.18 60.4296Z" fill="black"/>
<path d="M138.607 58.0992L137.63 60.3646C137.439 60.2084 137.227 60.0738 136.992 59.9609C136.767 59.8396 136.532 59.7788 136.289 59.7788C136.098 59.7788 135.916 59.8175 135.742 59.8959C135.577 59.9742 135.425 60.0784 135.287 60.2084C135.147 60.3384 135.026 60.4863 134.922 60.6509C134.817 60.8075 134.731 60.9634 134.662 61.12L134.401 61.8621C134.583 62.2438 134.761 62.6084 134.935 62.9559C135.082 63.2509 135.234 63.5504 135.391 63.8542C135.547 64.1492 135.677 64.3838 135.781 64.5575C135.946 64.8092 136.111 65.0696 136.276 65.3384C136.441 65.5992 136.623 65.8375 136.823 66.0546C136.91 66.15 137.014 66.2154 137.135 66.25C137.266 66.2759 137.383 66.2892 137.487 66.2892C137.652 66.2892 137.808 66.2675 137.956 66.2242C138.103 66.1804 138.242 66.1242 138.372 66.0546L138.698 66.4713C138.576 66.6625 138.429 66.8534 138.255 67.0442C138.082 67.2354 137.891 67.4088 137.682 67.565C137.482 67.7213 137.266 67.8471 137.031 67.9425C136.805 68.0467 136.575 68.0992 136.341 68.0992C136.133 68.0992 135.946 68.0642 135.781 67.995C135.625 67.9342 135.482 67.8517 135.352 67.7475C135.221 67.6346 135.1 67.5042 134.987 67.3567C134.874 67.2092 134.757 67.0575 134.635 66.9009C134.54 66.7534 134.436 66.5754 134.323 66.3671C134.219 66.15 134.11 65.9288 133.997 65.7034C133.884 65.4775 133.772 65.2604 133.659 65.0521C133.546 64.835 133.437 64.6529 133.333 64.505C133.29 64.6529 133.251 64.8004 133.216 64.9479C133.181 65.0696 133.142 65.1954 133.099 65.3254C133.055 65.4559 133.017 65.5554 132.982 65.625C132.852 65.9029 132.687 66.1892 132.487 66.4842C132.287 66.7796 132.057 67.0488 131.797 67.2917C131.545 67.5259 131.267 67.7213 130.963 67.8775C130.659 68.025 130.338 68.0992 130 68.0992C129.696 68.0992 129.401 68.0384 129.114 67.9167C128.828 67.8038 128.563 67.6521 128.32 67.4609L129.141 65.2996C129.418 65.4729 129.722 65.6292 130.052 65.7684C130.382 65.8984 130.712 65.9634 131.042 65.9634C131.146 65.9634 131.254 65.955 131.367 65.9375C131.48 65.9117 131.588 65.8767 131.692 65.8334C131.805 65.7813 131.905 65.7204 131.992 65.6509C132.079 65.5729 132.144 65.4817 132.187 65.3775C132.248 65.2646 132.313 65.1171 132.383 64.935C132.452 64.7525 132.522 64.5704 132.591 64.3879C132.669 64.1796 132.747 63.9584 132.825 63.7242L130.377 59.8046C130.264 59.6746 130.126 59.5705 129.961 59.4921C129.804 59.4055 129.639 59.3621 129.466 59.3621C129.319 59.3621 129.179 59.3925 129.049 59.4534C128.919 59.505 128.793 59.5792 128.672 59.6746L128.32 59.2188C128.442 59.0367 128.585 58.8584 128.75 58.685C128.924 58.5025 129.11 58.3421 129.31 58.2034C129.509 58.0555 129.722 57.9384 129.948 57.8517C130.174 57.7563 130.404 57.7084 130.638 57.7084C130.924 57.7084 131.189 57.7821 131.432 57.9296C131.675 58.0688 131.901 58.2421 132.109 58.4505C132.317 58.6588 132.509 58.8846 132.682 59.1275C132.856 59.3709 133.012 59.5963 133.151 59.8046C133.22 59.9 133.294 60.0217 133.372 60.1692C133.459 60.3084 133.542 60.4471 133.62 60.5859C133.715 60.7421 133.806 60.9117 133.893 61.0938C133.98 60.8855 134.071 60.6771 134.167 60.4688C134.245 60.295 134.323 60.1171 134.401 59.935C134.488 59.7438 134.566 59.5792 134.635 59.44C134.766 59.1971 134.913 58.9713 135.078 58.763C135.243 58.5546 135.425 58.3725 135.625 58.2163C135.833 58.06 136.059 57.9384 136.302 57.8517C136.545 57.7563 136.81 57.7084 137.096 57.7084C137.365 57.7084 137.626 57.743 137.877 57.8125C138.129 57.8821 138.372 57.9775 138.607 58.0992Z" fill="black"/>
<path d="M145.3 66.3933C145.1 66.8187 144.87 67.1441 144.609 67.37C144.349 67.5954 144.093 67.7604 143.841 67.8646C143.555 67.9862 143.26 68.0554 142.956 68.0729C142.565 68.0729 142.244 68.0121 141.992 67.8908C141.749 67.7691 141.554 67.6083 141.406 67.4087C141.267 67.2091 141.167 66.9833 141.107 66.7316C141.055 66.48 141.029 66.2241 141.029 65.9633V59.1408H139.648L140.208 57.8383H141.029V53.2291L143.412 52.3958V57.8383H145.885L145.352 59.1408H143.412V66.0287C143.412 66.237 143.459 66.4021 143.555 66.5233C143.65 66.645 143.772 66.71 143.919 66.7187C144.067 66.7187 144.232 66.6625 144.414 66.5495C144.596 66.4366 144.774 66.2541 144.948 66.0025L145.3 66.3933Z" fill="black"/>
<path d="M153.32 64.3229C153.32 64.8612 153.22 65.3645 153.021 65.8333C152.821 66.302 152.548 66.71 152.2 67.0575C151.862 67.4045 151.454 67.6779 150.977 67.8775C150.508 68.077 150 68.177 149.453 68.177C149.219 68.177 148.962 68.1554 148.685 68.112C148.416 68.0687 148.147 68.0033 147.877 67.9166C147.608 67.83 147.352 67.7212 147.109 67.5912C146.875 67.4608 146.68 67.3045 146.523 67.1225L148.06 65.117C148.164 65.282 148.29 65.4645 148.437 65.6641C148.594 65.855 148.763 66.0329 148.945 66.1979C149.136 66.3629 149.336 66.5016 149.544 66.6145C149.761 66.7187 149.978 66.7708 150.195 66.7708C150.447 66.7708 150.681 66.7275 150.898 66.6408C151.124 66.5537 151.32 66.4325 151.484 66.2758C151.649 66.1112 151.78 65.92 151.875 65.7033C151.97 65.4862 152.018 65.2475 152.018 64.987C152.018 64.6395 151.897 64.3229 151.654 64.0366C151.419 63.7412 151.137 63.4591 150.807 63.19C150.486 62.9125 150.147 62.63 149.792 62.3437C149.445 62.0487 149.162 61.7275 148.945 61.38L147.591 63.3591L147.083 62.9816L148.646 60.8204C148.524 60.5687 148.429 60.3037 148.359 60.0258C148.29 59.7483 148.255 59.4704 148.255 59.1925C148.255 58.9583 148.294 58.7108 148.372 58.4504C148.45 58.19 148.563 57.9512 148.711 57.7341C148.858 57.5175 149.037 57.3395 149.245 57.2004C149.462 57.0529 149.709 56.9791 149.987 56.9791C150.256 56.9791 150.482 57.0616 150.664 57.2266C150.855 57.3916 150.95 57.6216 150.95 57.9166C150.95 58.0729 150.925 58.2291 150.872 58.3854C150.82 58.5416 150.755 58.6979 150.677 58.8541C150.599 59.0104 150.512 59.1625 150.417 59.31C150.321 59.4487 150.23 59.5791 150.143 59.7004C150.352 59.9958 150.577 60.2516 150.82 60.4687C151.063 60.6858 151.302 60.8895 151.537 61.0808C151.771 61.2716 151.997 61.4625 152.213 61.6537C152.43 61.8445 152.617 62.0616 152.773 62.3045C152.938 62.5479 153.069 62.83 153.164 63.1508C153.268 63.472 153.32 63.8629 153.32 64.3229ZM150.365 58.1508C150.365 58.0295 150.321 57.9383 150.234 57.8775C150.156 57.8166 150.065 57.7866 149.961 57.7866C149.813 57.7866 149.709 57.8383 149.648 57.9425C149.587 58.0383 149.557 58.1466 149.557 58.2683C149.557 58.4416 149.583 58.6112 149.635 58.7758C149.696 58.9408 149.77 59.097 149.857 59.245C149.892 59.1841 149.935 59.1058 149.987 59.0104C150.048 58.915 150.104 58.815 150.156 58.7108C150.217 58.5979 150.265 58.4937 150.3 58.3983C150.343 58.2941 150.365 58.2116 150.365 58.1508Z" fill="black"/>
</g>
<defs>
<clipPath id="clip0_2_4086">
<rect width="153.333" height="70" fill="white"/>
</clipPath>
</defs>
</svg>
